<svg width="318" height="512" viewBox="0 0 318 512" fill="none" xmlns="http://www.w3.org/2000/svg">
<path fill-rule="evenodd" clip-rule="evenodd" d="M139.766 1.49996C96.551 8.27696 59.358 39.231 44.276 80.973C37.583 99.496 37.502 100.452 37.033 167.152L36.606 227.831L21.702 228.152L6.79899 228.473L3.53199 231.742L0.265991 235.011V369.973V504.935L3.53499 508.204L6.80399 511.473L157.623 511.733L308.442 511.992L311.839 509.703C313.708 508.443 315.799 506.301 316.487 504.943C318.315 501.331 318.315 238.615 316.487 235.003C315.799 233.645 313.714 231.507 311.854 230.253L308.47 227.973H279.86H234.29H195.554H82.638L83.011 168.723C83.374 110.985 83.44 109.286 85.598 102.152C93.7 75.368 113.7 55.496 139.766 48.332C148.724 45.87 168.792 45.843 177.734 48.28C198.626 53.975 216.545 68.669 226.356 88.152C232.261 99.878 233.837 107.425 234.463 126.973C234.694 134.162 234.293 196.474 234.29 227.973C234.288 238.648 234.333 245.784 234.463 246.035C234.977 247.026 239.747 258.931 241.5 260C244.254 261.679 243.664 260 255.766 260C268.048 260 273.862 247.806 276.766 246.035C278.204 245.159 279.195 238.2 279.86 227.973C281.843 197.519 280.948 138.086 280.44 123.973C279.772 105.367 278.048 94.798 273.624 82.159C254.096 26.3839 197.718 -7.58804 139.766 1.49996ZM173.014 295.965C180.922 298.923 188.845 306.357 192.926 314.647C197.19 323.308 198 334.57 194.975 343.141C192.337 350.617 187.677 357.241 182.25 361.232L177.844 364.473L177.805 401.273C177.762 441.647 177.656 442.427 171.799 445.456C169.745 446.518 165.837 446.973 158.766 446.973C151.695 446.973 147.787 446.518 145.733 445.456C139.876 442.427 139.77 441.647 139.727 401.273L139.688 364.473L135.282 361.232C117.992 348.518 115.874 321.745 130.869 305.477C141.585 293.851 157.665 290.222 173.014 295.965Z" fill="black"/>
<path d="M279.86 227.973H234.29C234.288 238.648 234.333 245.784 234.463 246.035C234.977 247.026 239.747 258.931 241.5 260C244.254 261.679 243.664 260 255.766 260C268.048 260 273.862 247.806 276.766 246.035C278.204 245.159 279.195 238.2 279.86 227.973Z" fill="black"/>
</svg>
