<svg width="318" height="512" viewBox="0 0 318 512" fill="none" xmlns="http://www.w3.org/2000/svg">
<path fill-rule="evenodd" clip-rule="evenodd" d="M139.5 1.46456C96.285 8.24156 59.092 39.1956 44.01 80.9376C37.317 99.4606 37.236 100.417 36.767 167.117L36.34 227.796L21.436 228.117L6.533 228.438L3.266 231.707L0 234.976V369.938V504.9L3.269 508.169L6.538 511.438L157.357 511.698L308.176 511.957L311.573 509.668C313.442 508.408 315.533 506.266 316.221 504.908C318.049 501.296 318.049 238.58 316.221 234.968C315.533 233.61 313.448 231.472 311.588 230.218L308.204 227.938H195.288H82.372L82.745 168.688C83.108 110.95 83.174 109.251 85.332 102.117C93.434 75.3326 113.434 55.4606 139.5 48.2966C148.458 45.8346 168.526 45.8076 177.468 48.2446C198.36 53.9396 216.279 68.6336 226.09 88.1166C231.995 99.8426 233.571 107.39 234.197 126.938C234.506 136.563 235.179 145.25 235.693 146.242C236.207 147.233 238.061 148.919 239.814 149.988C242.568 151.667 244.898 151.931 257 151.931C269.282 151.931 271.406 151.683 274.31 149.912C280.032 146.424 280.852 142.791 280.174 123.938C279.506 105.332 277.782 94.7626 273.358 82.1236C253.83 26.3485 197.452 -7.62344 139.5 1.46456ZM172.748 295.93C180.656 298.888 188.579 306.322 192.66 314.612C196.924 323.273 197.734 334.535 194.709 343.106C192.071 350.582 187.411 357.206 181.984 361.197L177.578 364.438L177.539 401.238C177.496 441.612 177.39 442.392 171.533 445.421C169.479 446.483 165.571 446.938 158.5 446.938C151.429 446.938 147.521 446.483 145.467 445.421C139.61 442.392 139.504 441.612 139.461 401.238L139.422 364.438L135.016 361.197C117.726 348.483 115.608 321.71 130.603 305.442C141.319 293.816 157.399 290.187 172.748 295.93Z" fill="black"/>
</svg>
